<svg viewBox="0 0 18 17" xmlns="http://www.w3.org/2000/svg">
  <rect width="18" height="17" fill="#ffffff" rx="3" ry="3"/>
  <g transform="translate(4.5, 3.5) scale(0.5)">
    <path fill-rule="evenodd" clip-rule="evenodd" d="M17.3163 0.205078H1.90166L6.43065 5.54633C7.12234 4.93875 8.02929 4.57034 9.02228 4.57034C11.192 4.57034 12.951 6.32928 12.951 8.49903C12.951 9.47504 12.5951 10.3679 12.0059 11.055L17.3163 15.647L17.3163 16.7929V0.205078ZM15.3246 16.7929L11.1126 11.8261C10.5072 12.2072 9.7905 12.4277 9.02228 12.4277C6.85253 12.4277 5.0936 10.6688 5.0936 8.49903C5.0936 7.73519 5.31158 7.02226 5.68874 6.41907L0.728516 2.14214V16.7929L15.3246 16.7929Z" fill="#000000"/>
  </g>
  <rect width="17" height="16" x="0.5" y="0.5" fill="none" stroke="#000000" stroke-width="0.5" rx="2.5" ry="2.5"/>
</svg>
